<?xml version="1.0" encoding="iso-8859-1"?>
<!-- Generator: Adobe Illustrator 19.1.0, SVG Export Plug-In . SVG Version: 6.00 Build 0)  -->
<svg class="headerIcon" width="16px" height="17px" viewBox="0 0 16 17" version="1.1" xmlns="http://www.w3.org/2000/svg" xmlns:xlink="http://www.w3.org/1999/xlink" role="img" style="fill: rgb(0, 0, 0);">
    <defs>
        <rect id="path-1" x="0" y="0" width="14" height="7"></rect>
    </defs>
    <g stroke="none" stroke-width="1" fill="none" fill-rule="evenodd">
        <g transform="translate(-1535.000000, -138.000000)">
            <g transform="translate(1535.000000, 137.000000)">
                <g transform="translate(1.000000, 0.000000)">
                    <mask id="mask-2" fill="white">
                        <use xlink:href="#path-1"></use>
                    </mask>
                    <g id="Mask"></g>
                    <path d="M7,10 C9.209139,10 11,8.209139 11,6 C11,3.790861 9.209139,2 7,2 C4.790861,2 3,3.790861 3,6 C3,8.209139 4.790861,10 7,10 Z M7,11 C4.23857625,11 2,8.76142375 2,6 C2,3.23857625 4.23857625,1 7,1 C9.76142375,1 12,3.23857625 12,6 C12,8.76142375 9.76142375,11 7,11 Z" fill="#000000" fill-rule="nonzero" mask="url(#mask-2)"></path>
                </g>
                <path d="M14.8440223,17 L13.5349314,8 L2.4650686,8 L1.15597769,17 L14.8440223,17 Z M1.6,7 L14.4,7 L16,18 L0,18 L1.6,7 Z" id="Rectangle" fill="#000000" fill-rule="nonzero" transform="translate(8.000000, 12.500000) rotate(180.000000) translate(-8.000000, -12.500000) "></path>
            </g>
        </g>
    </g>
</svg>
